<mxfile host="app.diagrams.net" modified="2020-05-11T17:07:15.614Z" agent="5.0 (Windows NT 10.0; Win64; x64) AppleWebKit/537.36 (KHTML, like Gecko) Chrome/81.0.4044.138 Safari/537.36" etag="tyhisDDPPgJzomDxynec" version="13.0.9" type="github">
  <diagram id="nAecOm9L24V3Sji0yUlf" name="Page-1">
    <mxGraphModel dx="782" dy="469" grid="1" gridSize="10" guides="1" tooltips="1" connect="1" arrows="1" fold="1" page="1" pageScale="1" pageWidth="827" pageHeight="1169" math="0" shadow="0">
      <root>
        <mxCell id="0" />
        <mxCell id="1" parent="0" />
        <mxCell id="Bzo42Yb6dfyPm2mY2Icw-2" value="" style="ellipse;html=1;shape=startState;fillColor=#000000;strokeColor=#ff0000;" parent="1" vertex="1">
          <mxGeometry x="370" y="30" width="30" height="30" as="geometry" />
        </mxCell>
        <mxCell id="Bzo42Yb6dfyPm2mY2Icw-3" value="" style="edgeStyle=orthogonalEdgeStyle;html=1;verticalAlign=bottom;endArrow=open;endSize=8;strokeColor=#ff0000;" parent="1" source="Bzo42Yb6dfyPm2mY2Icw-2" edge="1">
          <mxGeometry relative="1" as="geometry">
            <mxPoint x="385" y="120" as="targetPoint" />
          </mxGeometry>
        </mxCell>
        <mxCell id="Bzo42Yb6dfyPm2mY2Icw-4" value="Go to Dashboard/ Inventory Table" style="rounded=1;whiteSpace=wrap;html=1;arcSize=40;fontColor=#000000;fillColor=#ffffc0;strokeColor=#ff0000;" parent="1" vertex="1">
          <mxGeometry x="325" y="120" width="120" height="40" as="geometry" />
        </mxCell>
        <mxCell id="Bzo42Yb6dfyPm2mY2Icw-5" value="" style="edgeStyle=orthogonalEdgeStyle;html=1;verticalAlign=bottom;endArrow=open;endSize=8;strokeColor=#ff0000;" parent="1" source="Bzo42Yb6dfyPm2mY2Icw-4" edge="1">
          <mxGeometry relative="1" as="geometry">
            <mxPoint x="385" y="220" as="targetPoint" />
          </mxGeometry>
        </mxCell>
        <mxCell id="Bzo42Yb6dfyPm2mY2Icw-6" value="Choose an Inventory Item" style="rounded=1;whiteSpace=wrap;html=1;arcSize=40;fontColor=#000000;fillColor=#ffffc0;strokeColor=#ff0000;" parent="1" vertex="1">
          <mxGeometry x="320" y="220" width="120" height="40" as="geometry" />
        </mxCell>
        <mxCell id="Bzo42Yb6dfyPm2mY2Icw-7" value="" style="edgeStyle=orthogonalEdgeStyle;html=1;verticalAlign=bottom;endArrow=open;endSize=8;strokeColor=#ff0000;" parent="1" source="Bzo42Yb6dfyPm2mY2Icw-6" edge="1">
          <mxGeometry relative="1" as="geometry">
            <mxPoint x="380" y="320" as="targetPoint" />
          </mxGeometry>
        </mxCell>
        <mxCell id="Bzo42Yb6dfyPm2mY2Icw-11" value="" style="rhombus;whiteSpace=wrap;html=1;fillColor=#ffffc0;strokeColor=#ff0000;" parent="1" vertex="1">
          <mxGeometry x="340" y="320" width="80" height="40" as="geometry" />
        </mxCell>
        <mxCell id="Bzo42Yb6dfyPm2mY2Icw-12" value="" style="edgeStyle=orthogonalEdgeStyle;html=1;align=left;verticalAlign=bottom;endArrow=open;endSize=8;strokeColor=#ff0000;" parent="1" source="Bzo42Yb6dfyPm2mY2Icw-11" edge="1">
          <mxGeometry x="-1" relative="1" as="geometry">
            <mxPoint x="520" y="340" as="targetPoint" />
          </mxGeometry>
        </mxCell>
        <mxCell id="Bzo42Yb6dfyPm2mY2Icw-13" value="" style="edgeStyle=orthogonalEdgeStyle;html=1;align=left;verticalAlign=top;endArrow=open;endSize=8;strokeColor=#ff0000;" parent="1" source="Bzo42Yb6dfyPm2mY2Icw-11" edge="1">
          <mxGeometry y="20" relative="1" as="geometry">
            <mxPoint x="380" y="430" as="targetPoint" />
            <mxPoint as="offset" />
          </mxGeometry>
        </mxCell>
        <mxCell id="Bzo42Yb6dfyPm2mY2Icw-14" value="Increase Quantity" style="text;html=1;align=center;verticalAlign=middle;resizable=0;points=[];autosize=1;" parent="1" vertex="1">
          <mxGeometry x="415" y="320" width="110" height="20" as="geometry" />
        </mxCell>
        <mxCell id="Bzo42Yb6dfyPm2mY2Icw-15" value="Decrease&lt;br&gt;Quantiry" style="text;html=1;align=center;verticalAlign=middle;resizable=0;points=[];autosize=1;" parent="1" vertex="1">
          <mxGeometry x="310" y="381" width="70" height="30" as="geometry" />
        </mxCell>
        <mxCell id="Bzo42Yb6dfyPm2mY2Icw-16" value="An Invoice is Created" style="rounded=1;whiteSpace=wrap;html=1;arcSize=40;fontColor=#000000;fillColor=#ffffc0;strokeColor=#ff0000;" parent="1" vertex="1">
          <mxGeometry x="520" y="320" width="120" height="40" as="geometry" />
        </mxCell>
        <mxCell id="Bzo42Yb6dfyPm2mY2Icw-17" value="" style="edgeStyle=orthogonalEdgeStyle;html=1;verticalAlign=bottom;endArrow=open;endSize=8;strokeColor=#ff0000;" parent="1" source="Bzo42Yb6dfyPm2mY2Icw-16" edge="1">
          <mxGeometry relative="1" as="geometry">
            <mxPoint x="580" y="420" as="targetPoint" />
          </mxGeometry>
        </mxCell>
        <mxCell id="Bzo42Yb6dfyPm2mY2Icw-18" value="Fill in the Form &lt;br&gt;(Item, Supplier, Quantity)" style="rounded=1;whiteSpace=wrap;html=1;arcSize=40;fontColor=#000000;fillColor=#ffffc0;strokeColor=#ff0000;" parent="1" vertex="1">
          <mxGeometry x="520" y="420" width="120" height="40" as="geometry" />
        </mxCell>
        <mxCell id="Bzo42Yb6dfyPm2mY2Icw-19" value="" style="edgeStyle=orthogonalEdgeStyle;html=1;verticalAlign=bottom;endArrow=open;endSize=8;strokeColor=#ff0000;" parent="1" source="Bzo42Yb6dfyPm2mY2Icw-18" edge="1">
          <mxGeometry relative="1" as="geometry">
            <mxPoint x="580" y="520" as="targetPoint" />
          </mxGeometry>
        </mxCell>
        <mxCell id="Bzo42Yb6dfyPm2mY2Icw-20" value="" style="rhombus;whiteSpace=wrap;html=1;fillColor=#ffffc0;strokeColor=#ff0000;" parent="1" vertex="1">
          <mxGeometry x="540" y="520" width="80" height="40" as="geometry" />
        </mxCell>
        <mxCell id="Bzo42Yb6dfyPm2mY2Icw-21" value="" style="edgeStyle=orthogonalEdgeStyle;html=1;align=left;verticalAlign=bottom;endArrow=open;endSize=8;strokeColor=#ff0000;entryX=1;entryY=0.5;entryDx=0;entryDy=0;" parent="1" source="Bzo42Yb6dfyPm2mY2Icw-20" target="Bzo42Yb6dfyPm2mY2Icw-18" edge="1">
          <mxGeometry x="-1" relative="1" as="geometry">
            <mxPoint x="720" y="440" as="targetPoint" />
            <Array as="points">
              <mxPoint x="710" y="540" />
              <mxPoint x="710" y="440" />
            </Array>
          </mxGeometry>
        </mxCell>
        <mxCell id="Bzo42Yb6dfyPm2mY2Icw-22" value="" style="edgeStyle=orthogonalEdgeStyle;html=1;align=left;verticalAlign=top;endArrow=open;endSize=8;strokeColor=#ff0000;" parent="1" source="Bzo42Yb6dfyPm2mY2Icw-20" edge="1">
          <mxGeometry x="-1" relative="1" as="geometry">
            <mxPoint x="580" y="620" as="targetPoint" />
          </mxGeometry>
        </mxCell>
        <mxCell id="Bzo42Yb6dfyPm2mY2Icw-24" value="Reset" style="text;html=1;align=center;verticalAlign=middle;resizable=0;points=[];autosize=1;" parent="1" vertex="1">
          <mxGeometry x="615" y="510" width="50" height="20" as="geometry" />
        </mxCell>
        <mxCell id="Bzo42Yb6dfyPm2mY2Icw-25" value="Save" style="text;html=1;align=center;verticalAlign=middle;resizable=0;points=[];autosize=1;" parent="1" vertex="1">
          <mxGeometry x="530" y="575" width="40" height="20" as="geometry" />
        </mxCell>
        <mxCell id="Bzo42Yb6dfyPm2mY2Icw-26" value="Invoice is Sent to the Expenses Page" style="rounded=1;whiteSpace=wrap;html=1;arcSize=40;fontColor=#000000;fillColor=#ffffc0;strokeColor=#ff0000;" parent="1" vertex="1">
          <mxGeometry x="600" y="700" width="120" height="40" as="geometry" />
        </mxCell>
        <mxCell id="Bzo42Yb6dfyPm2mY2Icw-27" value="" style="edgeStyle=orthogonalEdgeStyle;html=1;verticalAlign=bottom;endArrow=open;endSize=8;strokeColor=#ff0000;" parent="1" source="Bzo42Yb6dfyPm2mY2Icw-26" edge="1">
          <mxGeometry relative="1" as="geometry">
            <mxPoint x="680" y="720" as="targetPoint" />
            <Array as="points">
              <mxPoint x="680" y="720" />
            </Array>
          </mxGeometry>
        </mxCell>
        <mxCell id="Bzo42Yb6dfyPm2mY2Icw-28" value="Fill in the Quantity Used" style="rounded=1;whiteSpace=wrap;html=1;arcSize=40;fontColor=#000000;fillColor=#ffffc0;strokeColor=#ff0000;" parent="1" vertex="1">
          <mxGeometry x="320" y="430" width="120" height="40" as="geometry" />
        </mxCell>
        <mxCell id="Bzo42Yb6dfyPm2mY2Icw-29" value="" style="edgeStyle=orthogonalEdgeStyle;html=1;verticalAlign=bottom;endArrow=open;endSize=8;strokeColor=#ff0000;" parent="1" source="Bzo42Yb6dfyPm2mY2Icw-28" edge="1">
          <mxGeometry relative="1" as="geometry">
            <mxPoint x="380" y="530" as="targetPoint" />
          </mxGeometry>
        </mxCell>
        <mxCell id="Bzo42Yb6dfyPm2mY2Icw-30" value="" style="rhombus;whiteSpace=wrap;html=1;fillColor=#ffffc0;strokeColor=#ff0000;" parent="1" vertex="1">
          <mxGeometry x="340" y="530" width="80" height="40" as="geometry" />
        </mxCell>
        <mxCell id="Bzo42Yb6dfyPm2mY2Icw-31" value="Cancel" style="edgeStyle=orthogonalEdgeStyle;html=1;align=left;verticalAlign=bottom;endArrow=open;endSize=8;strokeColor=#ff0000;entryX=1;entryY=0.5;entryDx=0;entryDy=0;" parent="1" source="Bzo42Yb6dfyPm2mY2Icw-30" target="Bzo42Yb6dfyPm2mY2Icw-28" edge="1">
          <mxGeometry x="-1" relative="1" as="geometry">
            <mxPoint x="490" y="450" as="targetPoint" />
            <Array as="points">
              <mxPoint x="500" y="550" />
              <mxPoint x="500" y="450" />
            </Array>
          </mxGeometry>
        </mxCell>
        <mxCell id="Bzo42Yb6dfyPm2mY2Icw-32" value="" style="edgeStyle=orthogonalEdgeStyle;html=1;align=left;verticalAlign=top;endArrow=open;endSize=8;strokeColor=#ff0000;" parent="1" source="Bzo42Yb6dfyPm2mY2Icw-30" edge="1">
          <mxGeometry x="-1" relative="1" as="geometry">
            <mxPoint x="380" y="630" as="targetPoint" />
          </mxGeometry>
        </mxCell>
        <mxCell id="Bzo42Yb6dfyPm2mY2Icw-37" value="Submit" style="text;html=1;align=center;verticalAlign=middle;resizable=0;points=[];autosize=1;" parent="1" vertex="1">
          <mxGeometry x="325" y="590" width="50" height="20" as="geometry" />
        </mxCell>
        <mxCell id="Bzo42Yb6dfyPm2mY2Icw-38" value="The Quantity of the Item is Diminished" style="rounded=1;whiteSpace=wrap;html=1;arcSize=40;fontColor=#000000;fillColor=#ffffc0;strokeColor=#ff0000;" parent="1" vertex="1">
          <mxGeometry x="320" y="630" width="120" height="40" as="geometry" />
        </mxCell>
        <mxCell id="Bzo42Yb6dfyPm2mY2Icw-39" value="" style="edgeStyle=orthogonalEdgeStyle;html=1;verticalAlign=bottom;endArrow=open;endSize=8;strokeColor=#ff0000;entryX=0.25;entryY=0.5;entryDx=0;entryDy=0;entryPerimeter=0;" parent="1" source="Bzo42Yb6dfyPm2mY2Icw-38" target="Bzo42Yb6dfyPm2mY2Icw-46" edge="1">
          <mxGeometry relative="1" as="geometry">
            <mxPoint x="380" y="730" as="targetPoint" />
            <Array as="points" />
          </mxGeometry>
        </mxCell>
        <mxCell id="Bzo42Yb6dfyPm2mY2Icw-40" value="" style="shape=line;html=1;strokeWidth=6;strokeColor=#ff0000;" parent="1" vertex="1">
          <mxGeometry x="490" y="620" width="200" height="10" as="geometry" />
        </mxCell>
        <mxCell id="Bzo42Yb6dfyPm2mY2Icw-41" value="" style="edgeStyle=orthogonalEdgeStyle;html=1;verticalAlign=bottom;endArrow=open;endSize=8;strokeColor=#ff0000;exitX=0.217;exitY=0.667;exitDx=0;exitDy=0;exitPerimeter=0;entryX=0.561;entryY=0.017;entryDx=0;entryDy=0;entryPerimeter=0;" parent="1" source="Bzo42Yb6dfyPm2mY2Icw-40" target="Bzo42Yb6dfyPm2mY2Icw-42" edge="1">
          <mxGeometry relative="1" as="geometry">
            <mxPoint x="523" y="700" as="targetPoint" />
            <Array as="points">
              <mxPoint x="537" y="627" />
            </Array>
          </mxGeometry>
        </mxCell>
        <mxCell id="Bzo42Yb6dfyPm2mY2Icw-42" value="Item&#39;s Quantity is increased" style="rounded=1;whiteSpace=wrap;html=1;arcSize=40;fontColor=#000000;fillColor=#ffffc0;strokeColor=#ff0000;" parent="1" vertex="1">
          <mxGeometry x="470" y="700" width="120" height="40" as="geometry" />
        </mxCell>
        <mxCell id="Bzo42Yb6dfyPm2mY2Icw-43" value="" style="edgeStyle=orthogonalEdgeStyle;html=1;verticalAlign=bottom;endArrow=open;endSize=8;strokeColor=#ff0000;" parent="1" source="Bzo42Yb6dfyPm2mY2Icw-42" target="Bzo42Yb6dfyPm2mY2Icw-46" edge="1">
          <mxGeometry relative="1" as="geometry">
            <mxPoint x="530" y="800" as="targetPoint" />
            <Array as="points">
              <mxPoint x="530" y="775" />
              <mxPoint x="450" y="775" />
            </Array>
          </mxGeometry>
        </mxCell>
        <mxCell id="Bzo42Yb6dfyPm2mY2Icw-44" value="" style="edgeStyle=orthogonalEdgeStyle;html=1;verticalAlign=bottom;endArrow=open;endSize=8;strokeColor=#ff0000;exitX=0.803;exitY=0.867;exitDx=0;exitDy=0;exitPerimeter=0;" parent="1" source="Bzo42Yb6dfyPm2mY2Icw-40" edge="1">
          <mxGeometry relative="1" as="geometry">
            <mxPoint x="651" y="698" as="targetPoint" />
            <mxPoint x="640" y="625" as="sourcePoint" />
            <Array as="points" />
          </mxGeometry>
        </mxCell>
        <mxCell id="Bzo42Yb6dfyPm2mY2Icw-45" value="" style="edgeStyle=orthogonalEdgeStyle;html=1;verticalAlign=bottom;endArrow=open;endSize=8;strokeColor=#ff0000;exitX=0.5;exitY=1;exitDx=0;exitDy=0;" parent="1" source="Bzo42Yb6dfyPm2mY2Icw-26" target="Bzo42Yb6dfyPm2mY2Icw-46" edge="1">
          <mxGeometry relative="1" as="geometry">
            <mxPoint x="540" y="790" as="targetPoint" />
            <mxPoint x="540" y="750" as="sourcePoint" />
            <Array as="points">
              <mxPoint x="660" y="780" />
              <mxPoint x="540" y="780" />
            </Array>
          </mxGeometry>
        </mxCell>
        <mxCell id="Bzo42Yb6dfyPm2mY2Icw-46" value="" style="shape=line;html=1;strokeWidth=6;strokeColor=#ff0000;" parent="1" vertex="1">
          <mxGeometry x="380" y="810" width="200" height="10" as="geometry" />
        </mxCell>
        <mxCell id="Bzo42Yb6dfyPm2mY2Icw-47" value="" style="edgeStyle=orthogonalEdgeStyle;html=1;verticalAlign=bottom;endArrow=open;endSize=8;strokeColor=#ff0000;" parent="1" source="Bzo42Yb6dfyPm2mY2Icw-46" target="Bzo42Yb6dfyPm2mY2Icw-48" edge="1">
          <mxGeometry relative="1" as="geometry">
            <mxPoint x="480" y="880" as="targetPoint" />
            <mxPoint x="470" y="830" as="sourcePoint" />
          </mxGeometry>
        </mxCell>
        <mxCell id="Bzo42Yb6dfyPm2mY2Icw-48" value="Back to Inventory Table" style="rounded=1;whiteSpace=wrap;html=1;arcSize=40;fontColor=#000000;fillColor=#ffffc0;strokeColor=#ff0000;" parent="1" vertex="1">
          <mxGeometry x="420" y="880" width="120" height="40" as="geometry" />
        </mxCell>
        <mxCell id="Bzo42Yb6dfyPm2mY2Icw-49" value="" style="edgeStyle=orthogonalEdgeStyle;html=1;verticalAlign=bottom;endArrow=open;endSize=8;strokeColor=#ff0000;exitX=0.5;exitY=1;exitDx=0;exitDy=0;" parent="1" source="Bzo42Yb6dfyPm2mY2Icw-48" target="Bzo42Yb6dfyPm2mY2Icw-50" edge="1">
          <mxGeometry relative="1" as="geometry">
            <mxPoint x="480" y="960" as="targetPoint" />
            <mxPoint x="490" y="830" as="sourcePoint" />
          </mxGeometry>
        </mxCell>
        <mxCell id="Bzo42Yb6dfyPm2mY2Icw-50" value="" style="ellipse;html=1;shape=endState;fillColor=#000000;strokeColor=#ff0000;" parent="1" vertex="1">
          <mxGeometry x="465" y="970" width="30" height="30" as="geometry" />
        </mxCell>
      </root>
    </mxGraphModel>
  </diagram>
</mxfile>
